<?xml version="1.0" encoding="utf-8"?>
<!-- Uploaded to: SVG Repo, www.svgrepo.com, Generator: SVG Repo Mixer Tools -->
<svg fill="#000000" version="1.1" id="Layer_1" xmlns="http://www.w3.org/2000/svg" xmlns:xlink="http://www.w3.org/1999/xlink" 
	 width="800px" height="800px" viewBox="0 0 256 256" enable-background="new 0 0 256 256" xml:space="preserve">
<path d="M98.6,32.6c24,0,43.4,19.4,43.4,43.4s-19.4,43.6-43.4,43.6s-43.4-19.4-43.4-43.4S74.6,32.6,98.6,32.6z M221.8,215.6h-54.4
	l25.4-43.8c5.2-9.2,2-20.8-7-26s-20.6-2-25.8,7l-25.4,43.8l-37.8-64.8C93.2,125,86,121.6,77,121.6c-1.2,0-3.8,0.4-5.2,0.8
	c-1.2,0.2-3,0.8-4.4,1.2C31,135.6,2.2,193.8,2.2,254c1,0,87.4,0,109.4,0c-0.8-1.2-1.6-2.2-2.4-3.4L65.4,175c-1.4-2.6-0.4-6,2-7.4
	c2.6-1.4,6-0.4,7.4,2l43.4,75c3.2,5.6,9.2,9.4,16.2,9.4h87.4c10.6,0,19-8.6,19-19C241,224,232.2,215.6,221.8,215.6z M244.366,51.279
	c11.558-10.162,12.997-27.869,2.791-39.645l0,0c-10.162-11.558-27.869-12.997-39.645-2.791l-4.012,3.489l-4.012-3.489
	c-11.558-10.162-29.483-8.766-39.645,2.791l0,0c-10.206,11.601-8.766,29.483,2.791,39.645l40.212,41.215L244.366,51.279z"/>
</svg>